<svg width="24" height="24" viewBox="0 0 24 24" fill="none" xmlns="http://www.w3.org/2000/svg">
<path d="M5.84533 4.05984C5.93527 4.05984 6.0049 4.05984 6.07307 4.05984C11.1255 4.05984 16.1793 4.05984 21.2317 4.05984C21.3419 4.05984 21.4551 4.05479 21.5595 4.08509C21.8801 4.17599 22.0629 4.54632 21.9802 4.95201C21.7843 5.9132 21.5813 6.87102 21.3811 7.83053C21.0373 9.47515 20.6906 11.1181 20.3468 12.7627C20.2583 13.1819 20.0785 13.3569 19.7071 13.4024C18.5307 13.5421 17.3557 13.6886 16.1807 13.83C14.9985 13.9714 13.8163 14.1077 12.6355 14.2491C11.4591 14.3905 10.2841 14.5353 9.10915 14.6784C8.77551 14.7188 8.44043 14.7541 8.10679 14.8029C8.05602 14.8097 7.97769 14.8602 7.96609 14.9056C7.84279 15.4578 7.73109 16.0133 7.61214 16.5856C7.70788 16.5856 7.78911 16.5856 7.8689 16.5856C11.4649 16.5856 15.0623 16.5839 18.6583 16.5907C18.8034 16.5907 18.963 16.626 19.0877 16.7051C19.3227 16.8516 19.4184 17.1815 19.3459 17.471C19.2661 17.7993 19.0369 17.9962 18.7207 17.9979C18.0012 18.0013 17.2817 17.9996 16.5622 17.9996C13.3477 17.9996 10.1347 17.9996 6.92022 17.9996C6.51985 17.9996 6.24279 17.7353 6.23409 17.3229C6.23119 17.1714 6.27035 17.0182 6.30082 16.8684C6.47634 16.0267 6.65766 15.1851 6.83028 14.3434C6.85059 14.2441 6.85494 14.1279 6.83318 14.0286C6.05277 10.5474 5.2651 7.06629 4.48469 3.58177C4.45277 3.437 4.3991 3.4067 4.28305 3.40838C3.74344 3.41511 3.20382 3.41848 2.66565 3.41175C2.18841 3.40501 1.89104 2.94883 2.03755 2.46571C2.12024 2.19637 2.32767 2.00615 2.57572 2.00447C3.35903 1.99942 4.14235 1.99774 4.92566 2.00447C5.22884 2.00615 5.43482 2.22836 5.5175 2.60206C5.62339 3.08181 5.73219 3.56157 5.84533 4.05984ZM9.3804 8.6924C9.27161 7.60327 9.16572 6.54445 9.05983 5.48058C8.09374 5.48058 7.1407 5.48058 6.16881 5.48058C6.42267 6.60842 6.67071 7.71606 6.92312 8.84053C7.74125 8.79172 8.55067 8.7429 9.3804 8.6924ZM10.596 8.62002C11.388 8.57288 12.1554 8.52743 12.9227 8.4803C12.9227 7.46187 12.9227 6.47207 12.9227 5.48226C12.0379 5.48226 11.1646 5.48226 10.2812 5.48226C10.3871 6.53267 10.4916 7.56456 10.596 8.62002ZM14.1615 5.47721C14.1615 6.45355 14.1615 7.41811 14.1615 8.40455C14.955 8.35741 15.7383 8.31028 16.5318 8.26315C16.6246 7.32552 16.716 6.40978 16.8088 5.47721C15.9124 5.47721 15.0406 5.47721 14.1615 5.47721ZM9.51966 10.0929C8.7494 10.1384 8.00525 10.1838 7.23644 10.2293C7.47724 11.3016 7.71078 12.3436 7.94868 13.4007C8.57823 13.325 9.19618 13.2509 9.82864 13.1735C9.72419 12.1348 9.62265 11.1231 9.51966 10.0929ZM17.7648 8.16215C17.7967 8.17561 17.8083 8.18403 17.8184 8.18403C18.5423 8.14363 19.2661 8.10323 19.9885 8.05441C20.0306 8.05104 20.0915 7.97866 20.1046 7.92479C20.1669 7.68071 20.2148 7.43157 20.267 7.18412C20.3845 6.6202 20.502 6.0546 20.6195 5.49236C20.5934 5.48058 20.5818 5.47048 20.5717 5.47048C19.7593 5.46879 18.9485 5.46543 18.1361 5.47384C18.0955 5.47384 18.0273 5.55969 18.0201 5.61525C17.9795 5.91993 17.9534 6.22798 17.9243 6.53603C17.8721 7.07639 17.8184 7.61674 17.7648 8.16215ZM11.037 13.0304C11.6796 12.9529 12.3048 12.8772 12.9227 12.8014C12.9227 11.8116 12.9227 10.8538 12.9227 9.88757C12.1887 9.93134 11.4678 9.97511 10.7352 10.0189C10.8368 11.0373 10.9369 12.0288 11.037 13.0304ZM14.1644 9.81519C14.1644 10.768 14.1644 11.7039 14.1644 12.655C14.8186 12.5759 15.4583 12.5001 16.1155 12.421C16.2068 11.5137 16.2968 10.6097 16.3896 9.68221C15.6339 9.72766 14.9013 9.77142 14.1644 9.81519ZM19.7854 9.47684C19.0471 9.52229 18.3392 9.56605 17.6197 9.60982C17.5312 10.502 17.4427 11.3773 17.3543 12.2746C17.8997 12.2072 18.4219 12.1449 18.9441 12.0793C19.2502 12.0406 19.2516 12.0372 19.3242 11.6904C19.4779 10.9615 19.6288 10.231 19.7854 9.47684Z" fill="white"/>
<path d="M16.4988 22C15.6673 21.9975 14.9924 21.3184 15.0001 20.4918C15.0077 19.6677 15.68 18.9988 16.5013 19C17.3277 19 18.0038 19.6817 18 20.5096C17.9962 21.3298 17.3188 22.0026 16.4988 22ZM16.0684 20.5083C16.0709 20.755 16.2619 20.9381 16.5102 20.933C16.7483 20.928 16.9329 20.7397 16.9329 20.5019C16.9329 20.2603 16.7369 20.0645 16.4975 20.0657C16.2555 20.0683 16.0658 20.2641 16.0684 20.5083Z" fill="white"/>
<path d="M8.49431 22C7.66519 21.9962 6.98994 21.3133 7.00011 20.4879C7.01029 19.6639 7.68299 18.9975 8.50321 19C9.32598 19.0013 10.0063 19.6906 9.99996 20.5134C9.99487 21.3311 9.31199 22.0038 8.49431 22ZM8.50576 20.933C8.74737 20.9292 8.94194 20.7283 8.93431 20.4905C8.92668 20.2578 8.72957 20.0657 8.49813 20.0657C8.25778 20.0657 8.06068 20.2641 8.06449 20.5045C8.06831 20.7499 8.26033 20.9356 8.50576 20.933Z" fill="white"/>
</svg>
