<svg width="25" height="26" viewBox="0 0 25 26" fill="none" xmlns="http://www.w3.org/2000/svg">
<path d="M24.7569 10.5519H23.75V10.5H12.5V15.5H19.5644C18.5338 18.4106 15.7644 20.5 12.5 20.5C8.35812 20.5 5 17.1419 5 13C5 8.85812 8.35812 5.5 12.5 5.5C14.4119 5.5 16.1513 6.22125 17.4756 7.39937L21.0112 3.86375C18.7787 1.78312 15.7925 0.5 12.5 0.5C5.59688 0.5 0 6.09688 0 13C0 19.9031 5.59688 25.5 12.5 25.5C19.4031 25.5 25 19.9031 25 13C25 12.1619 24.9137 11.3438 24.7569 10.5519Z" fill="#FFC107"/>
<path d="M1.44141 7.18188L5.54828 10.1938C6.65953 7.4425 9.35078 5.5 12.5002 5.5C14.412 5.5 16.1514 6.22125 17.4758 7.39937L21.0114 3.86375C18.7789 1.78312 15.7927 0.5 12.5002 0.5C7.69891 0.5 3.53516 3.21062 1.44141 7.18188Z" fill="#FF3D00"/>
<path d="M12.5002 25.4999C15.7289 25.4999 18.6627 24.2643 20.8808 22.2549L17.0121 18.9812C15.7149 19.9677 14.1299 20.5012 12.5002 20.4999C9.24895 20.4999 6.48832 18.4268 5.44832 15.5337L1.37207 18.6743C3.44082 22.7224 7.64207 25.4999 12.5002 25.4999Z" fill="#4CAF50"/>
<path d="M24.7569 10.5519H23.75V10.5H12.5V15.5H19.5644C19.0714 16.8853 18.1833 18.0957 17.01 18.9819L17.0119 18.9806L20.8806 22.2544C20.6069 22.5031 25 19.25 25 13C25 12.1619 24.9137 11.3438 24.7569 10.5519Z" fill="#1976D2"/>
</svg>
