<svg width="30" height="26" viewBox="0 0 30 26" fill="none" xmlns="http://www.w3.org/2000/svg">
<path d="M29.1103 17.9556H26.4086C25.2851 20.3355 23.3524 22.3676 20.7466 23.6071C16.1233 25.8042 10.682 24.7651 7.17559 21.357L23.8072 5.49677C24.1326 5.90627 24.4313 6.34218 24.7033 6.80452L25.7487 8.59661L28.1295 6.32457C27.4473 5.36247 26.6203 4.48624 25.6752 3.71568L29.3131 0.243774H0.86045V12.9602C0.86045 16.1789 2.24474 19.118 4.52737 21.357L0 25.6744H29.1103V17.9556ZM25.7131 1.15303L24.1616 2.6347C23.2031 2.03807 22.1576 1.53831 21.0453 1.15303H25.7131ZM3.61789 1.15303H10.1047C7.48544 2.06009 5.2407 3.5968 3.61789 5.54961V1.15303ZM5.16045 18.7592C1.85464 12.958 4.04588 5.64208 9.962 2.53563C10.069 2.48059 10.176 2.42555 10.283 2.37271C14.4314 0.347249 19.2865 1.21468 22.5544 4.16481L5.96962 19.9832C5.67761 19.5958 5.40565 19.1885 5.16045 18.7592ZM3.60005 24.7673L5.92058 22.5547C7.15329 23.4816 8.56434 24.2345 10.1069 24.7673H3.60005ZM21.043 24.7673C23.0782 24.0628 24.8861 22.9774 26.3528 21.6124V24.7673H21.043Z" fill="white"/>
</svg>
