<svg width="24" height="24" viewBox="0 0 24 24" fill="none" xmlns="http://www.w3.org/2000/svg">
<path d="M22.1159 19.6904C20.8306 17.4503 18.8235 15.7049 16.4178 14.7351C17.6141 13.8441 18.4978 12.602 18.9437 11.1846C19.3896 9.76721 19.3751 8.24644 18.9022 6.83772C18.4293 5.42899 17.522 4.20372 16.3089 3.33547C15.0957 2.46722 13.6382 2 12.1428 2C10.6474 2 9.18988 2.46722 7.97674 3.33547C6.7636 4.20372 5.85633 5.42899 5.38343 6.83772C4.91054 8.24644 4.89601 9.76721 5.34189 11.1846C5.78778 12.602 6.67147 13.8441 7.8678 14.7351C5.46211 15.7049 3.45503 17.4503 2.16968 19.6904C2.09003 19.8176 2.03695 19.9593 2.01358 20.1073C1.99022 20.2552 1.99705 20.4063 2.03367 20.5516C2.07028 20.6969 2.13594 20.8334 2.22674 20.9529C2.31754 21.0725 2.43162 21.1727 2.5622 21.2476C2.69279 21.3225 2.83721 21.3706 2.98688 21.389C3.13655 21.4074 3.28841 21.3957 3.43345 21.3547C3.57848 21.3136 3.71372 21.244 3.83112 21.15C3.94853 21.056 4.0457 20.9395 4.11687 20.8075C5.81562 17.8918 8.81562 16.1529 12.1428 16.1529C15.47 16.1529 18.47 17.8928 20.1687 20.8075C20.323 21.0538 20.5676 21.2308 20.8509 21.3012C21.1342 21.3716 21.434 21.3299 21.6869 21.1848C21.9397 21.0398 22.1259 20.8027 22.206 20.5238C22.286 20.2449 22.2537 19.9461 22.1159 19.6904ZM7.2678 9.07783C7.2678 8.12041 7.55372 7.18449 8.08939 6.38842C8.62506 5.59235 9.38643 4.97189 10.2772 4.6055C11.168 4.23911 12.1482 4.14325 13.0939 4.33003C14.0395 4.51682 14.9082 4.97786 15.5899 5.65486C16.2717 6.33186 16.736 7.19441 16.9241 8.13344C17.1122 9.07246 17.0157 10.0458 16.6467 10.9303C16.2777 11.8149 15.6529 12.5709 14.8512 13.1028C14.0495 13.6347 13.107 13.9187 12.1428 13.9187C10.8503 13.9172 9.61122 13.4067 8.6973 12.4992C7.78338 11.5917 7.26929 10.3612 7.2678 9.07783Z" fill="white"/>
</svg>
