<svg width="20" height="20" viewBox="0 0 20 20" fill="none" xmlns="http://www.w3.org/2000/svg">
<g clip-path="url(#clip0_1_135)">
<path d="M4.84376 8.62299C4.92839 8.62299 5.02279 8.63601 5.12696 8.66205C5.23113 8.6881 5.33529 8.7239 5.43946 8.76948C5.54363 8.81505 5.64779 8.85737 5.75196 8.89643C5.85613 8.93549 5.95053 8.97455 6.03516 9.01362L5.87891 9.03315C5.82683 9.03966 5.77149 9.04291 5.7129 9.04291C5.60222 9.04291 5.50131 9.02664 5.41016 8.99409C5.31902 8.96153 5.23438 8.91922 5.15626 8.86713C5.07813 8.81505 5.00001 8.77599 4.92188 8.74994C4.84376 8.7239 4.77214 8.70437 4.70704 8.69135C4.64193 8.69135 4.58334 8.70437 4.53126 8.73041C4.47917 8.75646 4.42709 8.78575 4.37501 8.8183C4.37501 8.79226 4.35222 8.77924 4.30665 8.77924C4.35222 8.73367 4.43686 8.69786 4.56055 8.67182C4.68425 8.64578 4.77865 8.6295 4.84376 8.62299ZM6.16212 9.06244C6.42904 9.06244 6.67318 9.10802 6.89454 9.19916C6.80339 9.23172 6.71225 9.25776 6.6211 9.27729C6.52995 9.29682 6.43555 9.30984 6.3379 9.31635C6.20769 9.31635 6.0905 9.30333 5.98633 9.27729C6.01889 9.22521 6.05144 9.19265 6.08399 9.17963C6.11654 9.16661 6.14258 9.12755 6.16212 9.06244ZM10 -5.47751e-05C10.918 -5.47751e-05 11.8001 0.120388 12.6465 0.361273C13.4928 0.602159 14.2871 0.937445 15.0293 1.36713C15.7715 1.79682 16.4486 2.32091 17.0606 2.9394C17.6725 3.55789 18.1934 4.23172 18.6231 4.96088C19.0527 5.69005 19.3913 6.48432 19.6387 7.3437C19.8861 8.20307 20.0065 9.08849 20 9.99994C20 10.9179 19.8796 11.8001 19.6387 12.6464C19.3978 13.4928 19.0625 14.2871 18.6328 15.0292C18.2031 15.7714 17.679 16.4485 17.0606 17.0605C16.4421 17.6725 15.7682 18.1933 15.0391 18.623C14.3099 19.0527 13.5156 19.3912 12.6563 19.6386C11.7969 19.886 10.9115 20.0065 10 19.9999C9.08204 19.9999 8.19988 19.8795 7.35352 19.6386C6.50717 19.3977 5.7129 19.0624 4.97071 18.6328C4.22852 18.2031 3.55144 17.679 2.93946 17.0605C2.32748 16.442 1.80665 15.7682 1.37696 15.039C0.947272 14.3098 0.60873 13.5156 0.361334 12.6562C0.113939 11.7968 -0.00650416 10.9114 6.26003e-06 9.99994C6.26003e-06 9.08198 0.120449 8.19981 0.361334 7.35346C0.60222 6.50711 0.937506 5.71284 1.36719 4.97065C1.79688 4.22846 2.32097 3.55138 2.93946 2.9394C3.55795 2.32742 4.23178 1.80659 4.96094 1.3769C5.69011 0.947211 6.48438 0.608669 7.34376 0.361273C8.20313 0.113878 9.08855 -0.00656519 10 -5.47751e-05ZM17.4414 5.41987C17.3503 5.27664 17.2591 5.13992 17.168 5.00971C17.0768 4.8795 16.9824 4.74604 16.8848 4.60932C16.8718 4.66791 16.8555 4.71023 16.8359 4.73627C16.8164 4.76231 16.8034 4.82091 16.7969 4.91205C16.7969 4.97065 16.8197 5.02599 16.8652 5.07807C16.9108 5.13015 16.9694 5.18224 17.041 5.23432C17.1126 5.2864 17.1843 5.32547 17.2559 5.35151C17.3275 5.37755 17.3893 5.40034 17.4414 5.41987ZM16.7676 4.46284C16.7676 4.51492 16.7578 4.55073 16.7383 4.57026H16.7969C16.8229 4.57026 16.8425 4.57351 16.8555 4.58002L16.7676 4.46284ZM10 18.7499C10.7422 18.7499 11.4681 18.6555 12.1777 18.4667C12.8874 18.2779 13.5579 18.011 14.1895 17.666C14.821 17.3209 15.4069 16.8977 15.9473 16.3964C16.4876 15.8951 16.9596 15.3352 17.3633 14.7167C17.2787 14.5214 17.1973 14.3229 17.1191 14.121C17.041 13.9192 17.002 13.7109 17.002 13.496C17.002 13.2617 17.0117 13.0729 17.0313 12.9296C17.0508 12.7864 17.0736 12.6595 17.0996 12.5488C17.1257 12.4381 17.1387 12.3437 17.1387 12.2656C17.1387 12.1874 17.1289 12.0865 17.1094 11.9628C17.0898 11.8391 17.0345 11.7057 16.9434 11.5624C16.8522 11.4192 16.7318 11.2174 16.582 10.957C16.5885 10.9114 16.5983 10.8496 16.6113 10.7714C16.6244 10.6933 16.6374 10.6119 16.6504 10.5273C16.6634 10.4427 16.6667 10.3645 16.6602 10.2929C16.6537 10.2213 16.6374 10.1595 16.6113 10.1074C16.4421 10.0878 16.2663 10.052 16.084 9.99994C15.9017 9.94786 15.7389 9.86974 15.5957 9.76557L15.6543 9.71674C15.5697 9.73627 15.485 9.76231 15.4004 9.79487C15.3158 9.82742 15.2344 9.86323 15.1563 9.90229C15.0781 9.94135 14.9935 9.96739 14.9023 9.98041C14.8112 9.99343 14.7233 10.0065 14.6387 10.0195L14.4824 9.99994L14.5117 9.93159C14.4206 9.95763 14.3229 9.99018 14.2188 10.0292C14.1146 10.0683 14.0137 10.0878 13.916 10.0878C13.8509 10.0878 13.7565 10.065 13.6328 10.0195C13.5091 9.9739 13.3854 9.91856 13.2617 9.85346C13.138 9.78836 13.0273 9.71674 12.9297 9.63862C12.832 9.56049 12.7832 9.48562 12.7832 9.41401L12.8027 9.38471C12.7702 9.34565 12.7279 9.30984 12.6758 9.27729C12.6237 9.24474 12.5749 9.21218 12.5293 9.17963C12.4837 9.14708 12.4414 9.11127 12.4023 9.07221C12.3633 9.03315 12.347 8.98758 12.3535 8.93549L12.4609 8.8476L12.2363 8.8183L12.1582 8.52534C12.1712 8.55789 12.2005 8.57091 12.2461 8.5644C12.2917 8.55789 12.3275 8.54487 12.3535 8.52534L12.002 8.33979L12.2461 7.71479C12.155 7.37625 12.1322 7.11583 12.1777 6.93354C12.2233 6.75125 12.3112 6.60151 12.4414 6.48432C12.5716 6.36713 12.7148 6.24995 12.8711 6.13276C13.0273 6.01557 13.1869 5.85606 13.3496 5.65424L13.3203 5.53705L13.9648 4.7558L14.1113 4.73627C14.2936 4.73627 14.4987 4.72976 14.7266 4.71674C14.9544 4.70372 15.1856 4.68093 15.4199 4.64838C15.6543 4.61583 15.8854 4.58328 16.1133 4.55073C16.3412 4.51817 16.5495 4.47586 16.7383 4.42377C16.53 4.17638 16.3119 3.942 16.084 3.72065C15.8561 3.49929 15.612 3.28771 15.3516 3.08588C15.28 3.11192 15.1921 3.14773 15.0879 3.1933C14.9837 3.23888 14.8796 3.29747 14.7754 3.36909C14.6712 3.4407 14.5898 3.51883 14.5313 3.60346C14.4727 3.6881 14.4369 3.77599 14.4238 3.86713L14.4824 4.05268C14.3652 4.24148 14.235 4.35867 14.0918 4.40424C13.9486 4.44981 13.8021 4.47586 13.6523 4.48237C13.5026 4.48888 13.3464 4.48888 13.1836 4.48237C13.0208 4.47586 12.8646 4.50515 12.7148 4.57026L12.5586 4.23823L12.7051 3.67182L12.5391 3.42768L14.2285 2.90034C14.1569 2.71804 14.0397 2.58133 13.877 2.49018C13.7142 2.39903 13.5352 2.35346 13.3398 2.35346V2.2558L13.8867 2.16791C13.2813 1.86843 12.653 1.64057 12.002 1.48432C11.3509 1.32807 10.6836 1.24995 10 1.24995C9.4336 1.24995 8.8737 1.30528 8.32032 1.41596C7.76693 1.52664 7.23308 1.68614 6.71876 1.89448C6.20443 2.10281 5.70639 2.36323 5.22462 2.67573C4.74284 2.98823 4.30339 3.33979 3.90626 3.73041C4.07553 3.73041 4.20574 3.77273 4.29688 3.85737C4.38803 3.942 4.47266 4.0364 4.55079 4.14057C4.62891 4.24474 4.71029 4.33914 4.79493 4.42377C4.87956 4.50841 4.9935 4.55398 5.13672 4.56049L5.29297 4.4433L5.27344 4.22846L5.59571 3.76948L5.3418 3.04682C5.37436 3.02729 5.42318 2.99474 5.48829 2.94916C5.55339 2.90359 5.60873 2.8808 5.6543 2.8808C5.84962 2.8808 5.99936 2.89057 6.10352 2.9101C6.20769 2.92963 6.29883 2.96544 6.37696 3.01752C6.45508 3.06961 6.52344 3.14448 6.58204 3.24213C6.64063 3.33979 6.73178 3.46349 6.85547 3.61323L7.20704 3.33979C7.27214 3.36583 7.37631 3.40815 7.51954 3.46674C7.66277 3.52534 7.80925 3.59695 7.95899 3.68159C8.10873 3.76622 8.23568 3.85411 8.33985 3.94526C8.44402 4.0364 8.49936 4.12104 8.50587 4.19916C8.50587 4.29682 8.47006 4.37495 8.39844 4.43354C8.32683 4.49213 8.23243 4.54096 8.11524 4.58002C7.99805 4.61909 7.87761 4.64838 7.75391 4.66791C7.63021 4.68745 7.50652 4.71349 7.38282 4.74604C7.25912 4.77859 7.16472 4.81114 7.09962 4.8437C7.03451 4.87625 6.99545 4.93159 6.98243 5.00971L7.54883 5.19526C7.41863 5.30593 7.27865 5.40685 7.12891 5.49799C6.97917 5.58914 6.82292 5.67377 6.66016 5.7519L6.69922 5.91791L5.80079 6.26948V6.54291L5.73243 6.57221L5.78126 6.23041L5.74219 6.22065C5.69662 6.22065 5.67058 6.23041 5.66407 6.24995C5.65756 6.26948 5.6543 6.29226 5.6543 6.3183C5.6543 6.34435 5.66081 6.37039 5.67383 6.39643C5.68686 6.42247 5.69011 6.442 5.6836 6.45502L5.55665 6.38666L5.57618 6.42573C5.57618 6.44526 5.58594 6.47455 5.60547 6.51362C5.62501 6.55268 5.65105 6.58849 5.6836 6.62104C5.71615 6.65359 5.74219 6.68614 5.76172 6.7187C5.78126 6.75125 5.79428 6.76752 5.80079 6.76752C5.80079 6.78705 5.78777 6.80659 5.76172 6.82612C5.73568 6.84565 5.70313 6.85867 5.66407 6.86518C5.62501 6.87169 5.59896 6.88146 5.58594 6.89448C5.57292 6.9075 5.57292 6.91075 5.58594 6.90424C5.67709 6.90424 5.69662 6.91075 5.64454 6.92377C5.59245 6.93679 5.51107 6.96935 5.4004 7.02143C5.28972 7.07351 5.18881 7.14838 5.09766 7.24604C5.00652 7.3437 4.95443 7.48692 4.94141 7.67573C4.94141 7.7864 4.94467 7.89383 4.95118 7.99799C4.95769 8.10216 4.95443 8.20958 4.94141 8.32026C4.85027 8.07286 4.71355 7.88406 4.53126 7.75385C4.34896 7.62364 4.12761 7.55854 3.86719 7.55854L3.44727 7.5976L3.65235 7.73432C3.54167 7.7213 3.42774 7.70828 3.31055 7.69526C3.19337 7.68224 3.07292 7.67898 2.94922 7.68549C2.82553 7.692 2.71485 7.71804 2.61719 7.76362C2.51954 7.80919 2.42188 7.87755 2.32422 7.9687L2.26563 8.40815C2.26563 8.61648 2.3112 8.78575 2.40235 8.91596C2.4935 9.04617 2.653 9.11453 2.88087 9.12104C3.07618 9.12104 3.26824 9.09174 3.45704 9.03315C3.64584 8.97455 3.83139 8.90619 4.01368 8.82807C3.95508 8.9713 3.88998 9.10802 3.81837 9.23823C3.74675 9.36843 3.69467 9.51166 3.66212 9.66791L3.78907 9.72651C3.94532 9.62234 4.08855 9.60606 4.21876 9.67768C4.34896 9.74929 4.47592 9.85346 4.59962 9.99018C4.72331 10.1269 4.85027 10.2669 4.98047 10.4101C5.11068 10.5533 5.25066 10.6575 5.4004 10.7226L5.06837 10.8984L4.28712 10.4589C4.29363 10.472 4.30014 10.5012 4.30665 10.5468C4.31316 10.5924 4.3099 10.6022 4.29688 10.5761L3.94532 9.98041C3.73699 9.9739 3.51563 9.94135 3.28126 9.88276C3.04688 9.82416 2.80925 9.74604 2.56837 9.64838C2.32748 9.55073 2.10287 9.4433 1.89454 9.32612C1.6862 9.20893 1.49415 9.08523 1.31837 8.95502L1.25001 9.99994C1.25001 10.7942 1.35743 11.569 1.57227 12.3242C1.78712 13.0794 2.08985 13.789 2.48047 14.4531C2.8711 15.1171 3.34962 15.7226 3.91602 16.2695C4.48243 16.8164 5.11068 17.2818 5.80079 17.666C5.76824 17.5292 5.76498 17.3925 5.79102 17.2558C5.81706 17.1191 5.84962 16.9824 5.88868 16.8456C5.92774 16.7089 5.97006 16.5722 6.01563 16.4355C6.0612 16.2988 6.08399 16.1588 6.08399 16.0156C6.08399 15.8072 6.05144 15.5891 5.98633 15.3613C5.92123 15.1334 5.84311 14.9023 5.75196 14.6679C5.66081 14.4335 5.5599 14.2024 5.44922 13.9746C5.33855 13.7467 5.25066 13.5318 5.18555 13.33C5.12045 13.1282 5.06837 12.9394 5.0293 12.7636C4.99024 12.5878 5.00977 12.4348 5.0879 12.3046L4.94141 12.2363C4.98047 12.1451 5.03256 12.0572 5.09766 11.9726C5.16277 11.888 5.23113 11.8033 5.30274 11.7187C5.37436 11.6341 5.42969 11.5429 5.46876 11.4453C5.50782 11.3476 5.53061 11.2499 5.53712 11.1523C5.53712 11.0872 5.52409 11.0188 5.49805 10.9472C5.47201 10.8756 5.44922 10.8072 5.42969 10.7421L5.63477 10.791C5.74545 10.5371 5.89519 10.3645 6.08399 10.2734C6.27279 10.1822 6.51042 10.1334 6.79688 10.1269C6.82943 10.1269 6.89779 10.1399 7.00196 10.166C7.10613 10.192 7.2168 10.2278 7.33399 10.2734C7.45118 10.319 7.56186 10.3548 7.66602 10.3808C7.77019 10.4068 7.84831 10.4329 7.9004 10.4589C7.9004 10.5045 7.92644 10.5338 7.97852 10.5468C8.03061 10.5598 8.0599 10.5826 8.06641 10.6152L8.04688 10.6933C8.06641 10.6998 8.11199 10.7226 8.1836 10.7617C8.25521 10.8007 8.33334 10.8496 8.41797 10.9081C8.50261 10.9667 8.57748 11.0188 8.64258 11.0644C8.70769 11.11 8.75326 11.1458 8.7793 11.1718C8.89649 11.1718 9.056 11.2109 9.25782 11.289C9.45964 11.3671 9.681 11.4648 9.92188 11.582C10.1628 11.6992 10.4004 11.8391 10.6348 12.0019C10.8691 12.1647 11.0905 12.3274 11.2988 12.4902C11.5072 12.6529 11.6667 12.8157 11.7773 12.9785C11.888 13.1412 11.9531 13.2845 11.9727 13.4081L11.6406 13.7597C11.6667 14.0917 11.6439 14.3456 11.5723 14.5214C11.5007 14.6972 11.39 14.8437 11.2402 14.9609C11.0905 15.0781 10.918 15.1757 10.7227 15.2539C10.5273 15.332 10.3158 15.4427 10.0879 15.5859C10.0879 15.7161 10.0553 15.8561 9.99024 16.0058C9.92514 16.1555 9.84376 16.2988 9.7461 16.4355C9.64844 16.5722 9.53126 16.6861 9.39454 16.7773C9.25782 16.8684 9.1211 16.914 8.98438 16.914L8.57422 16.6015C8.58725 16.6145 8.58725 16.6373 8.57422 16.6699C8.5612 16.7024 8.54493 16.7089 8.5254 16.6894C8.5905 16.8131 8.60678 16.9563 8.57422 17.1191C8.54167 17.2818 8.48633 17.4479 8.40821 17.6171C8.33008 17.7864 8.24219 17.9459 8.14454 18.0956C8.04688 18.2454 7.95899 18.3723 7.88087 18.4765C8.23243 18.5677 8.58399 18.636 8.93555 18.6816C9.28712 18.7272 9.64193 18.7499 10 18.7499Z" fill="white"/>
</g>
<defs>
<clipPath id="clip0_1_135">
<rect width="20" height="20" fill="white"/>
</clipPath>
</defs>
</svg>
